<?xml version="1.0" encoding="UTF-8" standalone="no"?>
<svg
   xmlns:dc="http://purl.org/dc/elements/1.1/"
   xmlns:cc="http://creativecommons.org/ns#"
   xmlns:rdf="http://www.w3.org/1999/02/22-rdf-syntax-ns#"
   xmlns:svg="http://www.w3.org/2000/svg"
   xmlns="http://www.w3.org/2000/svg"
   xmlns:xlink="http://www.w3.org/1999/xlink"
   xmlns:sodipodi="http://sodipodi.sourceforge.net/DTD/sodipodi-0.dtd"
   xmlns:inkscape="http://www.inkscape.org/namespaces/inkscape"
   version="1.0"
   width="94.746002"
   height="15.616"
   id="svg2"
   inkscape:version="0.48.1 "
   sodipodi:docname="AJAX.svg">
  <metadata
     id="metadata98">
    <rdf:RDF>
      <cc:Work
         rdf:about="">
        <dc:format>image/svg+xml</dc:format>
        <dc:type
           rdf:resource="http://purl.org/dc/dcmitype/StillImage" />
      </cc:Work>
    </rdf:RDF>
  </metadata>
  <defs
     id="defs96" />
  <sodipodi:namedview
     pagecolor="#ffffff"
     bordercolor="#666666"
     borderopacity="1"
     objecttolerance="10"
     gridtolerance="10"
     guidetolerance="10"
     inkscape:pageopacity="0"
     inkscape:pageshadow="2"
     inkscape:window-width="1280"
     inkscape:window-height="1004"
     id="namedview94"
     showgrid="false"
     fit-margin-top="0"
     fit-margin-left="0"
     fit-margin-right="0"
     fit-margin-bottom="0"
     inkscape:zoom="7.3051601"
     inkscape:cx="70.040333"
     inkscape:cy="-8.5691635"
     inkscape:window-x="-8"
     inkscape:window-y="-8"
     inkscape:window-maximized="1"
     inkscape:current-layer="g4" />
  <g
     id="g4"
     transform="translate(-0.25,-0.192)">
    <polyline
       points="1.263,13.406 0.25,13.406 0.25,13.161 2.542,13.161 2.542,13.406 1.531,13.406 1.531,15.742 1.263,15.742"
       id="polyline6" />
    <polyline
       points="3.218,13.161 3.486,13.161 3.486,14.254 5.352,14.254 5.352,13.161 5.619,13.161 5.619,15.742 5.352,15.742 5.352,14.498 3.486,14.498 3.486,15.742 3.218,15.742"
       id="polyline8" />
    <polyline
       points="6.584,13.161 8.638,13.161 8.638,13.406 6.851,13.406 6.851,14.282 8.572,14.282 8.572,14.527 6.851,14.527 6.851,15.496 8.666,15.496 8.666,15.742 6.584,15.742"
       id="polyline10" />
    <polyline
       points="14.24,13.161 14.529,13.161 13.661,15.742 13.35,15.742 12.573,13.537 12.566,13.537 11.799,15.742 11.489,15.742 10.633,13.161 10.932,13.161 11.648,15.388 11.656,15.388 12.418,13.161 12.748,13.161 13.51,15.388 13.517,15.388"
       id="polyline12" />
    <path
       d="m 16.846,14.957 h -1.36 l -0.35,0.785 h -0.289 l 1.171,-2.581 h 0.311 l 1.171,2.581 h -0.31 m -1.02,-2.312 -0.575,1.282 h 1.144 L 16.17,13.43 z"
       id="path14"
       inkscape:connector-curvature="0" />
    <polyline
       points="18.897,14.657 17.736,13.161 18.083,13.161 19.031,14.391 19.977,13.161 20.325,13.161 19.164,14.657 19.164,15.742 18.897,15.742"
       id="polyline16" />
    <polyline
       points="23.169,13.406 22.157,13.406 22.157,13.161 24.448,13.161 24.448,13.406 23.436,13.406 23.436,15.742 23.169,15.742"
       id="polyline18" />
    <polyline
       points="25.125,13.161 25.393,13.161 25.393,14.254 27.258,14.254 27.258,13.161 27.524,13.161 27.524,15.742 27.258,15.742 27.258,14.498 25.393,14.498 25.393,15.742 25.125,15.742"
       id="polyline20" />
    <polyline
       points="28.49,13.161 30.543,13.161 30.543,13.406 28.758,13.406 28.758,14.282 30.478,14.282 30.478,14.527 28.758,14.527 28.758,15.496 30.573,15.496 30.573,15.742 28.49,15.742"
       id="polyline22" />
    <polyline
       points="32.861,13.161 34.914,13.161 34.914,13.406 33.128,13.406 33.128,14.282 34.849,14.282 34.849,14.527 33.128,14.527 33.128,15.496 34.943,15.496 34.943,15.742 32.861,15.742"
       id="polyline24" />
    <path
       d="m 37.476,14.957 h -1.359 l -0.35,0.785 h -0.29 l 1.171,-2.581 h 0.311 l 1.171,2.581 h -0.31 m -1.019,-2.312 -0.575,1.282 h 1.143 L 36.801,13.43 z"
       id="path26"
       inkscape:connector-curvature="0" />
    <path
       d="m 38.835,13.161 h 1.406 c 0.438,0 0.839,0.155 0.839,0.698 0,0.274 -0.169,0.549 -0.505,0.625 v 0.008 c 0.365,0.058 0.44,0.292 0.459,0.715 0.007,0.163 0.029,0.477 0.09,0.535 h -0.289 c -0.046,-0.055 -0.066,-0.246 -0.069,-0.527 -0.008,-0.457 -0.181,-0.607 -0.625,-0.607 h -1.038 v 1.135 h -0.268 m 0.268,-1.382 h 1.131 c 0.293,0 0.558,-0.108 0.558,-0.502 0,-0.38 -0.287,-0.453 -0.531,-0.453 h -1.158 v 0.955 z"
       id="path28"
       inkscape:connector-curvature="0" />
    <polyline
       points="42.682,13.406 41.669,13.406 41.669,13.161 43.961,13.161 43.961,13.406 42.949,13.406 42.949,15.742 42.682,15.742"
       id="polyline30" />
    <polyline
       points="44.637,13.161 44.904,13.161 44.904,14.254 46.771,14.254 46.771,13.161 47.038,13.161 47.038,15.742 46.771,15.742 46.771,14.498 44.904,14.498 44.904,15.742 44.637,15.742"
       id="polyline32" />
    <path
       d="m 51.968,14.758 c -0.057,0.579 -0.535,1.05 -1.275,1.05 -0.838,0 -1.374,-0.528 -1.374,-1.355 0,-0.59 0.365,-1.356 1.374,-1.356 0.563,0 1.175,0.257 1.254,0.937 h -0.268 c -0.079,-0.491 -0.521,-0.69 -0.986,-0.69 -0.639,0 -1.085,0.357 -1.085,1.11 0,0.575 0.3,1.108 1.085,1.108 0.614,0 0.918,-0.311 1.009,-0.803"
       id="path34"
       inkscape:connector-curvature="0" />
    <path
       d="m 54.101,13.096 c 0.734,0 1.402,0.445 1.402,1.356 0,0.91 -0.668,1.355 -1.402,1.355 -0.732,0 -1.401,-0.445 -1.401,-1.355 -0.001,-0.911 0.668,-1.356 1.401,-1.356 m 0,2.465 c 0.568,0 1.113,-0.332 1.113,-1.108 0,-0.776 -0.545,-1.11 -1.113,-1.11 -0.567,0 -1.113,0.334 -1.113,1.11 0,0.776 0.545,1.108 1.113,1.108"
       id="path36"
       inkscape:connector-curvature="0" />
    <polyline
       points="56.324,13.161 56.646,13.161 58.449,15.366 58.456,15.366 58.456,13.161 58.725,13.161 58.725,15.742 58.414,15.742 56.599,13.537 56.591,13.537 56.591,15.742 56.324,15.742"
       id="polyline38" />
    <polyline
       points="59.646,13.161 59.968,13.161 61.771,15.366 61.778,15.366 61.778,13.161 62.045,13.161 62.045,15.742 61.735,15.742 59.92,13.537 59.913,13.537 59.913,15.742 59.646,15.742"
       id="polyline40" />
    <polyline
       points="63.011,13.161 65.064,13.161 65.064,13.406 63.278,13.406 63.278,14.282 64.998,14.282 64.998,14.527 63.278,14.527 63.278,15.496 65.093,15.496 65.093,15.742 63.011,15.742"
       id="polyline42" />
    <path
       d="m 68.448,14.758 c -0.059,0.579 -0.535,1.05 -1.277,1.05 -0.837,0 -1.373,-0.528 -1.373,-1.355 0,-0.59 0.364,-1.356 1.373,-1.356 0.565,0 1.176,0.257 1.256,0.937 h -0.269 c -0.08,-0.491 -0.52,-0.69 -0.987,-0.69 -0.64,0 -1.084,0.357 -1.084,1.11 0,0.575 0.301,1.108 1.084,1.108 0.616,0 0.919,-0.311 1.01,-0.803"
       id="path44"
       inkscape:connector-curvature="0" />
    <polyline
       points="70.045,13.406 69.033,13.406 69.033,13.161 71.325,13.161 71.325,13.406 70.313,13.406 70.313,15.742 70.045,15.742"
       id="polyline46" />
    <path
       d="m 73.751,13.898 c -0.036,-0.441 -0.395,-0.557 -0.811,-0.557 -0.416,0 -0.729,0.162 -0.729,0.455 0,0.336 0.313,0.415 0.943,0.521 0.47,0.078 0.94,0.188 0.94,0.683 0,0.632 -0.575,0.807 -1.078,0.807 -0.654,0 -1.131,-0.225 -1.171,-0.919 h 0.268 c 0.046,0.542 0.408,0.672 0.903,0.672 0.387,0 0.788,-0.104 0.788,-0.513 0,-0.394 -0.47,-0.441 -0.939,-0.518 -0.615,-0.097 -0.943,-0.271 -0.943,-0.687 0,-0.563 0.521,-0.748 1.019,-0.748 0.528,0 1.06,0.188 1.077,0.803"
       id="path48"
       inkscape:connector-curvature="0" />
    <path
       d="m 82.611,4.529 c 0.578,-0.805 1.227,-1.581 1.935,-2.316 0.711,-0.735 1.466,-1.411 2.253,-2.02 l -0.843,3.375"
       id="path50"
       inkscape:connector-curvature="0"
       style="fill:#cdd0d3" />
    <path
       d="M 88.46,5.987 C 87.472,5.886 86.479,5.716 85.488,5.468 84.493,5.22 83.531,4.905 82.609,4.529 l 3.347,-0.961"
       id="path52"
       inkscape:connector-curvature="0"
       style="fill:#5b5b63" />
    <path
       d="m 86.798,0.192 c 0.406,0.904 0.755,1.852 1.038,2.833 C 88.118,4.01 88.324,5 88.46,5.987 L 85.956,3.568"
       id="path54"
       inkscape:connector-curvature="0"
       style="fill:#92959b" />
    <path
       d="M 81.43,11.47 C 80.843,10.669 80.306,9.817 79.826,8.913 79.344,8.008 78.935,7.083 78.598,6.146 l 2.953,1.845"
       id="path56"
       inkscape:connector-curvature="0"
       style="fill:#92959b" />
    <path
       d="m 84.623,6.359 c -0.4,0.907 -0.869,1.796 -1.411,2.666 -0.542,0.87 -1.141,1.686 -1.782,2.446 l 0.122,-3.479"
       id="path58"
       inkscape:connector-curvature="0"
       style="fill:#5b5b63" />
    <path
       d="m 78.599,6.146 c 0.988,-0.105 1.994,-0.144 3.017,-0.109 1.022,0.036 2.029,0.144 3.008,0.322 l -3.071,1.632"
       id="path60"
       inkscape:connector-curvature="0"
       style="fill:#cdd0d3" />
    <path
       d="m 87.665,14.739 c -0.942,0.309 -1.918,0.559 -2.926,0.736 -1.009,0.176 -2.016,0.279 -3.011,0.311 l 2.667,-2.237"
       id="path62"
       inkscape:connector-curvature="0"
       style="fill:#5b5b63" />
    <path
       d="m 83.79,10.121 c 0.742,0.661 1.444,1.384 2.101,2.167 0.658,0.784 1.25,1.604 1.774,2.451 l -3.27,-1.19"
       id="path64"
       inkscape:connector-curvature="0"
       style="fill:#92959b" />
    <path
       d="m 81.729,15.784 c 0.202,-0.973 0.477,-1.94 0.827,-2.9 0.35,-0.964 0.763,-1.886 1.235,-2.765 l 0.604,3.43"
       id="path66"
       inkscape:connector-curvature="0"
       style="fill:#cdd0d3" />
    <path
       d="m 92.701,9.819 c 0.005,0.991 -0.063,1.997 -0.204,3.008 -0.145,1.015 -0.356,2.004 -0.634,2.96 L 90.558,12.56"
       id="path68"
       inkscape:connector-curvature="0"
       style="fill:#92959b" />
    <path
       d="m 87.113,12.074 c 0.858,-0.499 1.76,-0.943 2.707,-1.327 0.953,-0.384 1.915,-0.692 2.881,-0.928 l -2.142,2.741"
       id="path70"
       inkscape:connector-curvature="0"
       style="fill:#cdd0d3" />
    <path
       d="M 91.863,15.786 C 91,15.294 90.162,14.733 89.356,14.104 88.548,13.472 87.801,12.793 87.112,12.074 l 3.446,0.486"
       id="path72"
       inkscape:connector-curvature="0"
       style="fill:#5b5b63" />
    <path
       d="m 89.577,3.506 c 0.944,0.305 1.882,0.679 2.801,1.127 0.92,0.447 1.796,0.956 2.618,1.517 l -3.473,0.242"
       id="path74"
       inkscape:connector-curvature="0"
       style="fill:#92959b" />
    <path
       d="M 89.997,9.521 C 89.789,8.55 89.643,7.554 89.572,6.534 89.501,5.51 89.504,4.5 89.577,3.506 l 1.946,2.886"
       id="path76"
       inkscape:connector-curvature="0"
       style="fill:#cdd0d3" />
    <path
       d="M 94.994,6.15 C 94.261,6.817 93.469,7.441 92.623,8.011 91.77,8.585 90.894,9.087 89.997,9.521 L 91.523,6.392"
       id="path78"
       inkscape:connector-curvature="0"
       style="fill:#5b5b63" />
    <g
       id="g80">
      <defs
         id="defs82">
        <rect
           id="SVGID_1_"
           x="0.25"
           y="0.192"
           width="99.5"
           height="15.615" />
      </defs>
      <clipPath
         id="SVGID_2_">
        <use
           xlink:href="#SVGID_1_"
           overflow="visible"
           id="use86"
           style="overflow:visible"
           x="0"
           y="0"
           width="100"
           height="16" />
      </clipPath>
      <path
         clip-path="url(#SVGID_2_)"
         d="m 0.25,9.784 c -0.001,0.552 0.161,0.959 0.486,1.284 0.431,0.434 1.198,0.652 2.157,0.652 0.539,0 2.382,-0.119 2.382,-1.649 0,-1.347 -1.229,-1.47 -2.312,-1.581 h 0 C 1.844,8.377 1.017,8.254 1.017,7.496 1.017,7.12 1.213,6.846 1.61,6.663 2.021,6.473 2.465,6.445 2.925,6.445 c 0.354,0 1.003,0.056 1.369,0.421 0.17,0.171 0.257,0.441 0.257,0.706 L 5.114,7.58 C 5.114,7.169 4.983,6.756 4.725,6.497 4.254,6.026 3.46,5.927 2.879,5.927 c -0.8,0 -1.587,0.173 -2.073,0.656 -0.253,0.254 -0.38,0.561 -0.38,0.913 0,1.317 1.341,1.425 2.394,1.519 0.499,0.046 0.969,0.087 1.319,0.242 0.369,0.159 0.542,0.428 0.542,0.84 0,0.263 -0.087,0.481 -0.26,0.653 -0.408,0.408 -1.255,0.453 -1.565,0.453 -0.76,0 -1.371,-0.165 -1.695,-0.488 C 0.928,10.482 0.807,10.192 0.805,9.782 M 6.173,6.031 v 0.546 h 2.163 v 5.04 h 0.573 v -5.04 h 2.165 V 6.031 H 6.173 z m 7.626,0 -2.568,5.586 h 0.631 c 0,0 0.734,-1.596 0.794,-1.727 h 2.813 c 0.06,0.131 0.785,1.727 0.785,1.727 h 0.644 L 14.331,6.031 h -0.532 z m 0.261,0.774 c 0.178,0.385 1.042,2.27 1.17,2.551 H 12.9 C 13.026,9.074 13.885,7.19 14.06,6.805 m 4.451,-0.774 v 5.586 h 0.581 V 9.189 h 2.263 c 0.996,0 1.23,0.197 1.256,1.065 0.021,0.909 0.062,1.206 0.182,1.326 l 0.036,0.036 H 23.43 L 23.334,11.435 C 23.245,11.261 23.21,10.917 23.202,10.012 23.191,9.46 22.89,9.06 22.409,8.882 c 0.627,-0.28 0.883,-0.847 0.883,-1.313 0,-1.035 -0.63,-1.538 -1.929,-1.538 h -2.852 z m 2.88,0.546 c 0.881,0 1.311,0.318 1.311,0.973 0,0.735 -0.458,1.094 -1.394,1.094 H 19.092 V 6.577 h 2.299 z m 8.53,-0.546 -2.567,5.586 h 0.64 c 0,0 0.725,-1.596 0.784,-1.727 h 2.813 c 0.06,0.131 0.793,1.727 0.793,1.727 h 0.634 L 30.46,6.031 h -0.539 z m 0.27,0.774 c 0.175,0.385 1.033,2.27 1.16,2.551 H 29.023 C 29.151,9.074 30.015,7.19 30.191,6.805 M 50.25,6.031 47.681,11.617 h 0.64 c 0,0 0.726,-1.596 0.786,-1.727 h 2.813 c 0.059,0.131 0.794,1.727 0.794,1.727 h 0.635 L 50.789,6.031 H 50.25 z m 0.268,0.774 c 0.175,0.385 1.035,2.27 1.161,2.551 H 49.351 C 49.479,9.074 50.343,7.19 50.518,6.805 M 34.822,6.031 v 5.586 h 4.025 V 11.07 H 35.404 V 6.031 h -0.582 z m 5.269,0 v 5.586 h 4.017 V 11.07 H 40.673 V 6.031 h -0.582 z m 5.223,5.586 h 0.574 V 6.031 h -0.574 v 5.586 z M 59.55,6.031 v 4.66 c -0.359,-0.435 -4.044,-4.66 -4.044,-4.66 h -0.583 v 5.586 h 0.574 V 6.956 c 0.358,0.434 4.044,4.662 4.044,4.662 H 60.12 V 6.031 h -0.57 z m 10.054,0 v 5.586 h 4.505 V 11.07 H 70.181 V 8.996 H 73.91 V 8.459 H 70.181 V 6.577 h 3.882 V 6.031 h -4.459 z m -7.671,2.8 c 0,1.766 1.228,2.903 3.028,2.903 1.677,0 2.693,-1.132 2.827,-2.252 L 67.806,9.344 H 67.2 l -0.019,0.101 c -0.193,1.077 -1.045,1.744 -2.221,1.744 -1.736,0 -2.429,-1.221 -2.429,-2.362 0,-1.395 1.007,-2.369 2.451,-2.369 1.099,0 1.888,0.525 2.116,1.405 l 0.021,0.093 h 0.606 L 67.69,7.807 C 67.416,6.602 66.427,5.912 64.981,5.912 62.929,5.913 61.933,7.426 61.933,8.831"
         id="path88"
         inkscape:connector-curvature="0" />
    </g>
  </g>
</svg>
