<svg width="512" height="512" viewBox="0 0 512 512" fill="none" xmlns="http://www.w3.org/2000/svg">
  <defs>
    <linearGradient id="bg" x1="74" y1="57" x2="438" y2="461" gradientUnits="userSpaceOnUse">
      <stop stop-color="#7FC6FF"/>
      <stop offset="0.48" stop-color="#3699FF"/>
      <stop offset="1" stop-color="#0876F7"/>
    </linearGradient>
    <linearGradient id="mark" x1="144" y1="101" x2="381" y2="424" gradientUnits="userSpaceOnUse">
      <stop stop-color="#FFFFFF"/>
      <stop offset="1" stop-color="#EAF4FF"/>
    </linearGradient>
    <filter id="soft-shadow" x="48" y="47" width="416" height="419" filterUnits="userSpaceOnUse" color-interpolation-filters="sRGB">
      <feDropShadow dx="0" dy="10" stdDeviation="13" flood-color="#0A5EB9" flood-opacity="0.22"/>
    </filter>
  </defs>
  <rect width="512" height="512" fill="url(#bg)"/>
  <g filter="url(#soft-shadow)">
    <path d="M217 231C153 273 109 323 107 363C104 423 186 438 263 422C196 427 136 410 134 366C132 326 176 281 231 244L217 231Z" fill="url(#mark)" opacity="0.76"/>
    <path d="M300 202L216 186C211 185 205 186 201 189L182 202C178 205 178 211 183 214L245 254L198 295L164 288C159 287 155 288 151 291L137 302C133 305 134 311 139 313L184 340L201 385C203 391 210 392 214 387L226 372C228 369 229 365 228 361L220 328L269 292L307 356C310 361 317 362 321 357L334 338C337 334 338 329 336 324L315 242L369 201C406 172 418 139 406 126C393 113 359 123 326 153L300 202Z" fill="url(#mark)"/>
    <path d="M252 282C252 257 272 237 297 237H331C343 237 355 242 364 251L405 292C414 301 419 313 419 325V384C419 409 399 429 374 429H297C272 429 252 409 252 384V282Z" fill="url(#mark)"/>
    <path d="M331 237V293C331 308 343 320 358 320H419" fill="white" fill-opacity="0.82"/>
    <path d="M299 344H379" stroke="#9DCCFF" stroke-width="11" stroke-linecap="round"/>
    <path d="M299 377H379" stroke="#9DCCFF" stroke-width="11" stroke-linecap="round"/>
  </g>
</svg>
